<svg xmlns="http://www.w3.org/2000/svg" width="20" height="20" viewBox="470 270 20 20"><path fill="#E23952" d="M480 270c5.527 0 10 4.478 10 10 0 5.527-4.473 10-10 10-5.522 0-10-4.473-10-10 0-5.522 4.478-10 10-10z"/><path fill="#FFF" d="M481.274 280l2.612 2.617c.352.352.352.918 0 1.27s-.918.352-1.27 0L480 281.274l-2.617 2.612c-.352.352-.918.352-1.27 0s-.352-.918 0-1.27l2.612-2.617-2.612-2.617c-.352-.352-.352-.918 0-1.27s.918-.352 1.27 0l2.617 2.612 2.617-2.612c.352-.352.918-.352 1.27 0s.352.918 0 1.27L481.274 280z"/></svg>